<?xml version="1.0" encoding="UTF-8"?>
<svg width="400" height="300" viewBox="0 0 400 300" xmlns="http://www.w3.org/2000/svg" xmlns:xlink="http://www.w3.org/1999/xlink">
  <defs>
    <!-- Dégradés -->
    <linearGradient id="skyGradient" x1="0%" y1="0%" x2="0%" y2="100%">
      <stop offset="0%" stop-color="#0a0a20" />
      <stop offset="100%" stop-color="#151538" />
    </linearGradient>
    
    <linearGradient id="crystalGradient1" x1="0%" y1="0%" x2="100%" y2="100%">
      <stop offset="0%" stop-color="#9d4edd" stop-opacity="0.7" />
      <stop offset="100%" stop-color="#6e00ff" stop-opacity="0.9" />
    </linearGradient>
    
    <linearGradient id="crystalGradient2" x1="0%" y1="0%" x2="100%" y2="100%">
      <stop offset="0%" stop-color="#00f2ff" stop-opacity="0.7" />
      <stop offset="100%" stop-color="#72efdd" stop-opacity="0.9" />
    </linearGradient>
    
    <filter id="glow" x="-20%" y="-20%" width="140%" height="140%">
      <feGaussianBlur stdDeviation="5" result="blur" />
      <feComposite in="SourceGraphic" in2="blur" operator="over" />
    </filter>
  </defs>
  
  <!-- Arrière-plan -->
  <rect width="400" height="300" fill="url(#skyGradient)" />
  
  <!-- Surface cristalline -->
  <polygon points="0,220 50,200 100,230 150,210 200,240 250,200 300,230 350,210 400,220 400,300 0,300" fill="#151538" />
  
  <!-- Grands cristaux -->
  <g id="crystals" filter="url(#glow)">
    <!-- Groupe central de cristaux -->
    <g id="centerCrystals">
      <polygon points="200,70 220,150 180,150" fill="url(#crystalGradient1)">
        <animate attributeName="points" values="200,70 220,150 180,150; 200,65 225,155 175,155; 200,70 220,150 180,150" dur="7s" repeatCount="indefinite" />
      </polygon>
      
      <polygon points="170,100 190,170 150,170" fill="url(#crystalGradient2)" opacity="0.9">
        <animate attributeName="points" values="170,100 190,170 150,170; 170,95 195,175 145,175; 170,100 190,170 150,170" dur="8s" repeatCount="indefinite" />
      </polygon>
      
      <polygon points="230,100 250,170 210,170" fill="url(#crystalGradient2)" opacity="0.9">
        <animate attributeName="points" values="230,100 250,170 210,170; 230,95 255,175 205,175; 230,100 250,170 210,170" dur="6s" repeatCount="indefinite" />
      </polygon>
    </g>
    
    <!-- Cristal gauche -->
    <g id="leftCrystals">
      <polygon points="100,120 130,220 70,220" fill="url(#crystalGradient1)" opacity="0.8">
        <animate attributeName="points" values="100,120 130,220 70,220; 100,115 135,225 65,225; 100,120 130,220 70,220" dur="10s" repeatCount="indefinite" />
      </polygon>
      
      <polygon points="120,150 140,210 100,210" fill="url(#crystalGradient2)" opacity="0.7">
        <animate attributeName="points" values="120,150 140,210 100,210; 120,145 145,215 95,215; 120,150 140,210 100,210" dur="9s" repeatCount="indefinite" />
      </polygon>
    </g>
    
    <!-- Cristal droit -->
    <g id="rightCrystals">
      <polygon points="300,130 330,230 270,230" fill="url(#crystalGradient1)" opacity="0.8">
        <animate attributeName="points" values="300,130 330,230 270,230; 300,125 335,235 265,235; 300,130 330,230 270,230" dur="11s" repeatCount="indefinite" />
      </polygon>
      
      <polygon points="280,160 300,220 260,220" fill="url(#crystalGradient2)" opacity="0.7">
        <animate attributeName="points" values="280,160 300,220 260,220; 280,155 305,225 255,225; 280,160 300,220 260,220" dur="8s" repeatCount="indefinite" />
      </polygon>
    </g>
  </g>
  
  <!-- Petits cristaux de fond -->
  <g id="backgroundCrystals">
    <polygon points="50,180 65,220 35,220" fill="url(#crystalGradient1)" opacity="0.6" />
    <polygon points="370,190 385,230 355,230" fill="url(#crystalGradient2)" opacity="0.6" />
    <polygon points="150,190 160,220 140,220" fill="url(#crystalGradient1)" opacity="0.5" />
    <polygon points="250,190 260,220 240,220" fill="url(#crystalGradient2)" opacity="0.5" />
  </g>
  
  <!-- Particules lumineuses -->
  <g id="particles">
    <circle cx="185" cy="120" r="1.5" fill="#ffffff">
      <animate attributeName="opacity" values="0.2;1;0.2" dur="3s" repeatCount="indefinite" />
    </circle>
    <circle cx="215" cy="130" r="1" fill="#ffffff">
      <animate attributeName="opacity" values="0.2;1;0.2" dur="4s" repeatCount="indefinite" />
    </circle>
    <circle cx="110" cy="170" r="1" fill="#ffffff">
      <animate attributeName="opacity" values="0.2;1;0.2" dur="5s" repeatCount="indefinite" />
    </circle>
    <circle cx="290" cy="180" r="1.5" fill="#ffffff">
      <animate attributeName="opacity" values="0.2;1;0.2" dur="3.5s" repeatCount="indefinite" />
    </circle>
  </g>
  
  <!-- Lueurs émanant des cristaux -->
  <g id="glows" opacity="0.3">
    <circle cx="200" cy="120" r="50" fill="#9d4edd">
      <animate attributeName="r" values="50;55;50" dur="5s" repeatCount="indefinite" />
      <animate attributeName="opacity" values="0.3;0.4;0.3" dur="5s" repeatCount="indefinite" />
    </circle>
    <circle cx="100" cy="170" r="40" fill="#6e00ff">
      <animate attributeName="r" values="40;45;40" dur="7s" repeatCount="indefinite" />
      <animate attributeName="opacity" values="0.2;0.3;0.2" dur="7s" repeatCount="indefinite" />
    </circle>
    <circle cx="300" cy="180" r="40" fill="#00f2ff">
      <animate attributeName="r" values="40;45;40" dur="6s" repeatCount="indefinite" />
      <animate attributeName="opacity" values="0.2;0.3;0.2" dur="6s" repeatCount="indefinite" />
    </circle>
  </g>
  
  <!-- Étoiles lointaines -->
  <g id="stars" opacity="0.7">
    <circle cx="50" cy="50" r="1" fill="#ffffff" />
    <circle cx="100" cy="30" r="1" fill="#ffffff" />
    <circle cx="150" cy="60" r="1" fill="#ffffff" />
    <circle cx="200" cy="40" r="1" fill="#ffffff" />
    <circle cx="250" cy="70" r="1" fill="#ffffff" />
    <circle cx="300" cy="50" r="1" fill="#ffffff" />
    <circle cx="350" cy="30" r="1" fill="#ffffff" />
    <circle cx="380" cy="70" r="1" fill="#ffffff" />
  </g>
</svg>
