<?xml version="1.0" encoding="UTF-8"?>
<svg width="400" height="300" viewBox="0 0 400 300" xmlns="http://www.w3.org/2000/svg" xmlns:xlink="http://www.w3.org/1999/xlink">
  <defs>
    <!-- Dégradés -->
    <linearGradient id="skyGradient" x1="0%" y1="0%" x2="0%" y2="100%">
      <stop offset="0%" stop-color="#0a0a20" />
      <stop offset="100%" stop-color="#151538" />
    </linearGradient>
    
    <radialGradient id="sphereGradient" cx="50%" cy="50%" r="50%" fx="50%" fy="50%">
      <stop offset="0%" stop-color="#151538" stop-opacity="0.1" />
      <stop offset="70%" stop-color="#6e00ff" stop-opacity="0.3" />
      <stop offset="90%" stop-color="#9d4edd" stop-opacity="0.5" />
      <stop offset="100%" stop-color="#00f2ff" stop-opacity="0.7" />
    </radialGradient>
    
    <radialGradient id="innerGlow" cx="50%" cy="50%" r="50%" fx="50%" fy="50%">
      <stop offset="0%" stop-color="#00f2ff" stop-opacity="0.7" />
      <stop offset="40%" stop-color="#9d4edd" stop-opacity="0.5" />
      <stop offset="100%" stop-color="#6e00ff" stop-opacity="0.1" />
    </radialGradient>
    
    <linearGradient id="landGradient" x1="0%" y1="0%" x2="100%" y2="100%">
      <stop offset="0%" stop-color="#00f2ff" stop-opacity="0.7" />
      <stop offset="50%" stop-color="#9d4edd" stop-opacity="0.5" />
      <stop offset="100%" stop-color="#6e00ff" stop-opacity="0.7" />
    </linearGradient>
    
    <filter id="glow" x="-20%" y="-20%" width="140%" height="140%">
      <feGaussianBlur stdDeviation="3" result="blur" />
      <feComposite in="SourceGraphic" in2="blur" operator="over" />
    </filter>
    
    <!-- Animation pour la rotation de la sphère -->
    <animateTransform xlink:href="#innerLands" attributeName="transform" type="rotate" from="0 200 150" to="360 200 150" dur="60s" repeatCount="indefinite" />
    
    <!-- Animation pour les nuages -->
    <animate xlink:href="#cloud1" attributeName="d" 
             values="M40,140 Q50,130 60,140 T80,140 Q90,130 100,140 T120,140 Q130,130 140,140 T160,140;
                     M50,140 Q60,130 70,140 T90,140 Q100,130 110,140 T130,140 Q140,130 150,140 T170,140;
                     M40,140 Q50,130 60,140 T80,140 Q90,130 100,140 T120,140 Q130,130 140,140 T160,140" 
             dur="20s" repeatCount="indefinite" />
             
    <animate xlink:href="#cloud2" attributeName="d" 
             values="M240,160 Q250,150 260,160 T280,160 Q290,150 300,160 T320,160 Q330,150 340,160 T360,160;
                     M250,160 Q260,150 270,160 T290,160 Q300,150 310,160 T330,160 Q340,150 350,160 T370,160;
                     M240,160 Q250,150 260,160 T280,160 Q290,150 300,160 T320,160 Q330,150 340,160 T360,160" 
             dur="25s" repeatCount="indefinite" />
  </defs>
  
  <!-- Arrière-plan -->
  <rect width="400" height="300" fill="url(#skyGradient)" />
  
  <!-- Étoiles d'arrière-plan -->
  <g>
    <circle cx="50" cy="50" r="1" fill="#ffffff" opacity="0.7" />
    <circle cx="100" cy="30" r="1.5" fill="#ffffff" opacity="0.8" />
    <circle cx="150" cy="70" r="1" fill="#ffffff" opacity="0.6" />
    <circle cx="250" cy="40" r="1.2" fill="#ffffff" opacity="0.7" />
    <circle cx="300" cy="60" r="1" fill="#ffffff" opacity="0.6" />
    <circle cx="350" cy="30" r="1.3" fill="#ffffff" opacity="0.8" />
    <circle cx="380" cy="80" r="1" fill="#ffffff" opacity="0.7" />
    <circle cx="30" cy="100" r="1.2" fill="#ffffff" opacity="0.7" />
    <circle cx="70" cy="200" r="1" fill="#ffffff" opacity="0.6" />
    <circle cx="370" cy="220" r="1.5" fill="#ffffff" opacity="0.8" />
    <circle cx="330" cy="250" r="1" fill="#ffffff" opacity="0.7" />
  </g>
  
  <!-- Sphère creuse principale -->
  <circle cx="200" cy="150" r="100" fill="url(#sphereGradient)" stroke="#00f2ff" stroke-width="1" opacity="0.9" />
  
  <!-- Intérieur de la sphère (monde inversé) -->
  <g id="innerLands" filter="url(#glow)">
    <!-- Continents à l'intérieur de la sphère -->
    <path d="M160,90 Q180,80 200,85 T240,90 Q250,100 240,110 T220,120 Q200,125 180,120 T160,110 Q150,100 160,90 Z" fill="url(#landGradient)" opacity="0.8" />
    <path d="M170,170 Q190,160 210,165 T250,170 Q260,180 250,190 T230,200 Q210,205 190,200 T170,190 Q160,180 170,170 Z" fill="url(#landGradient)" opacity="0.8" />
    <path d="M130,140 Q140,130 150,135 T170,140 Q180,150 170,160 T150,170 Q140,175 130,170 T120,160 Q110,150 130,140 Z" fill="url(#landGradient)" opacity="0.8" />
    <path d="M230,130 Q240,120 250,125 T270,130 Q280,140 270,150 T250,160 Q240,165 230,160 T220,150 Q210,140 230,130 Z" fill="url(#landGradient)" opacity="0.8" />
  </g>
  
  <!-- Nuages à l'intérieur de la sphère -->
  <g opacity="0.6">
    <path id="cloud1" d="M40,140 Q50,130 60,140 T80,140 Q90,130 100,140 T120,140 Q130,130 140,140 T160,140" fill="none" stroke="#ffffff" stroke-width="1" />
    <path id="cloud2" d="M240,160 Q250,150 260,160 T280,160 Q290,150 300,160 T320,160 Q330,150 340,160 T360,160" fill="none" stroke="#ffffff" stroke-width="1" />
  </g>
  
  <!-- Villes et lumières à l'intérieur -->
  <g>
    <circle cx="180" cy="100" r="1" fill="#ffffff" opacity="0.9" />
    <circle cx="200" cy="110" r="0.8" fill="#ffffff" opacity="0.8" />
    <circle cx="220" cy="95" r="1.2" fill="#ffffff" opacity="0.9" />
    
    <circle cx="190" cy="180" r="1" fill="#ffffff" opacity="0.9" />
    <circle cx="210" cy="190" r="0.8" fill="#ffffff" opacity="0.8" />
    <circle cx="230" cy="175" r="1.2" fill="#ffffff" opacity="0.9" />
    
    <circle cx="140" cy="150" r="1" fill="#ffffff" opacity="0.9" />
    <circle cx="150" cy="140" r="0.8" fill="#ffffff" opacity="0.8" />
    
    <circle cx="250" cy="140" r="1" fill="#ffffff" opacity="0.9" />
    <circle cx="260" cy="130" r="0.8" fill="#ffffff" opacity="0.8" />
  </g>
  
  <!-- Rayons lumineux traversant la sphère -->
  <g opacity="0.3">
    <line x1="120" y1="50" x2="280" y2="250" stroke="#ffffff" stroke-width="0.5" />
    <line x1="280" y1="50" x2="120" y2="250" stroke="#ffffff" stroke-width="0.5" />
    <line x1="200" y1="50" x2="200" y2="250" stroke="#ffffff" stroke-width="0.5" />
    <line x1="100" y1="150" x2="300" y2="150" stroke="#ffffff" stroke-width="0.5" />
  </g>
  
  <!-- Portails d'entrée/sortie -->
  <circle cx="200" cy="50" r="5" fill="url(#innerGlow)" stroke="#00f2ff" stroke-width="1" opacity="0.9">
    <animate attributeName="r" values="5;6;5" dur="3s" repeatCount="indefinite" />
  </circle>
  
  <circle cx="200" cy="250" r="5" fill="url(#innerGlow)" stroke="#00f2ff" stroke-width="1" opacity="0.9">
    <animate attributeName="r" values="5;6;5" dur="3s" repeatCount="indefinite" />
  </circle>
  
  <!-- Vaisseau spatial entrant dans la sphère -->
  <g>
    <path d="M200,30 L197,35 L203,35 Z" fill="#ffffff" opacity="0.9">
      <animate attributeName="opacity" values="0.9;1;0.9" dur="2s" repeatCount="indefinite" />
    </path>
    
    <line x1="200" y1="35" x2="200" y2="40" stroke="#ffffff" stroke-width="0.5" opacity="0.7">
      <animate attributeName="opacity" values="0.7;0.3;0.7" dur="1s" repeatCount="indefinite" />
    </line>
  </g>
</svg>
