<?xml version="1.0" encoding="UTF-8"?>
<svg width="400" height="300" viewBox="0 0 400 300" xmlns="http://www.w3.org/2000/svg" xmlns:xlink="http://www.w3.org/1999/xlink">
  <defs>
    <!-- Dégradés -->
    <linearGradient id="skyGradient" x1="0%" y1="0%" x2="0%" y2="100%">
      <stop offset="0%" stop-color="#0a0a20" />
      <stop offset="100%" stop-color="#151538" />
    </linearGradient>
    
    <linearGradient id="thoughtGradient" x1="0%" y1="0%" x2="100%" y2="100%">
      <stop offset="0%" stop-color="#6e00ff" stop-opacity="0.7" />
      <stop offset="50%" stop-color="#9d4edd" stop-opacity="0.5" />
      <stop offset="100%" stop-color="#00f2ff" stop-opacity="0.7" />
    </linearGradient>
    
    <radialGradient id="thoughtBubbleGlow" cx="50%" cy="50%" r="50%" fx="50%" fy="50%">
      <stop offset="0%" stop-color="#ffffff" stop-opacity="1" />
      <stop offset="40%" stop-color="#9d4edd" stop-opacity="0.8" />
      <stop offset="100%" stop-color="#6e00ff" stop-opacity="0" />
    </radialGradient>
    
    <filter id="glow" x="-20%" y="-20%" width="140%" height="140%">
      <feGaussianBlur stdDeviation="3" result="blur" />
      <feComposite in="SourceGraphic" in2="blur" operator="over" />
    </filter>
    
    <!-- Animations pour les pensées qui se matérialisent -->
    <animate xlink:href="#thought1" attributeName="r" values="0;20;15" dur="5s" repeatCount="indefinite" />
    <animate xlink:href="#thought1" attributeName="opacity" values="0;0.9;0.7" dur="5s" repeatCount="indefinite" />
    
    <animate xlink:href="#thought2" attributeName="r" values="0;15;10" dur="6s" repeatCount="indefinite" begin="2s" />
    <animate xlink:href="#thought2" attributeName="opacity" values="0;0.8;0.6" dur="6s" repeatCount="indefinite" begin="2s" />
    
    <animate xlink:href="#thought3" attributeName="r" values="0;25;20" dur="7s" repeatCount="indefinite" begin="1s" />
    <animate xlink:href="#thought3" attributeName="opacity" values="0;0.9;0.7" dur="7s" repeatCount="indefinite" begin="1s" />
    
    <!-- Animation pour les structures de pensée -->
    <animate xlink:href="#thoughtStructure1" attributeName="d" 
             values="M100,200 L120,180 L150,190 L140,220 Z;
                     M100,200 L130,170 L160,190 L140,230 Z;
                     M100,200 L120,180 L150,190 L140,220 Z" 
             dur="15s" repeatCount="indefinite" />
             
    <animate xlink:href="#thoughtStructure2" attributeName="d" 
             values="M250,220 L270,190 L300,200 L280,230 Z;
                     M250,220 L280,180 L310,200 L280,240 Z;
                     M250,220 L270,190 L300,200 L280,230 Z" 
             dur="18s" repeatCount="indefinite" />
             
    <animate xlink:href="#thoughtStructure3" attributeName="d" 
             values="M180,150 L200,120 L220,150 L200,180 Z;
                     M170,150 L200,110 L230,150 L200,190 Z;
                     M180,150 L200,120 L220,150 L200,180 Z" 
             dur="20s" repeatCount="indefinite" />
  </defs>
  
  <!-- Arrière-plan -->
  <rect width="400" height="300" fill="url(#skyGradient)" />
  
  <!-- Paysage de base (qui va être transformé par les pensées) -->
  <path d="M0,220 C50,210 100,230 150,220 C200,210 250,230 300,220 C350,210 400,230 400,220 L400,300 L0,300 Z" fill="#151538" opacity="0.8" />
  
  <!-- Connexions neuronales (représentant le réseau de pensées) -->
  <g opacity="0.5">
    <path d="M50,100 C100,50 150,150 200,100 C250,50 300,150 350,100" fill="none" stroke="url(#thoughtGradient)" stroke-width="1" />
    <path d="M50,150 C100,100 150,200 200,150 C250,100 300,200 350,150" fill="none" stroke="url(#thoughtGradient)" stroke-width="1" />
    <path d="M50,200 C100,150 150,250 200,200 C250,150 300,250 350,200" fill="none" stroke="url(#thoughtGradient)" stroke-width="1" />
  </g>
  
  <!-- Silhouettes humaines (penseurs) -->
  <g opacity="0.8">
    <!-- Silhouette 1 -->
    <path d="M100,250 L100,230 L95,220 L105,220 L100,230" fill="none" stroke="#ffffff" stroke-width="1" />
    <circle cx="100" cy="215" r="5" fill="none" stroke="#ffffff" stroke-width="1" />
    
    <!-- Silhouette 2 -->
    <path d="M200,250 L200,230 L195,220 L205,220 L200,230" fill="none" stroke="#ffffff" stroke-width="1" />
    <circle cx="200" cy="215" r="5" fill="none" stroke="#ffffff" stroke-width="1" />
    
    <!-- Silhouette 3 -->
    <path d="M300,250 L300,230 L295,220 L305,220 L300,230" fill="none" stroke="#ffffff" stroke-width="1" />
    <circle cx="300" cy="215" r="5" fill="none" stroke="#ffffff" stroke-width="1" />
  </g>
  
  <!-- Bulles de pensée qui se matérialisent -->
  <g filter="url(#glow)">
    <circle id="thought1" cx="100" cy="180" r="0" fill="url(#thoughtBubbleGlow)" opacity="0" />
    <circle id="thought2" cx="200" cy="180" r="0" fill="url(#thoughtBubbleGlow)" opacity="0" />
    <circle id="thought3" cx="300" cy="180" r="0" fill="url(#thoughtBubbleGlow)" opacity="0" />
  </g>
  
  <!-- Structures architecturales créées par les pensées -->
  <g opacity="0.8">
    <path id="thoughtStructure1" d="M100,200 L120,180 L150,190 L140,220 Z" fill="none" stroke="#00f2ff" stroke-width="1" />
    <path id="thoughtStructure2" d="M250,220 L270,190 L300,200 L280,230 Z" fill="none" stroke="#9d4edd" stroke-width="1" />
    <path id="thoughtStructure3" d="M180,150 L200,120 L220,150 L200,180 Z" fill="none" stroke="#6e00ff" stroke-width="1" />
  </g>
  
  <!-- Symboles de pensée (formules, symboles, etc.) -->
  <g opacity="0.7">
    <text x="90" cy="170" font-family="'Orbitron', sans-serif" font-size="5" fill="#ffffff">E=mc²</text>
    <text x="190" cy="170" font-family="'Orbitron', sans-serif" font-size="5" fill="#ffffff">∞</text>
    <text x="290" cy="170" font-family="'Orbitron', sans-serif" font-size="5" fill="#ffffff">Φ</text>
    
    <path d="M120,160 L130,160" stroke="#ffffff" stroke-width="0.5" />
    <path d="M220,160 C225,155 230,165 235,160" stroke="#ffffff" stroke-width="0.5" fill="none" />
    <path d="M320,160 L325,155 L330,160 L325,165 Z" stroke="#ffffff" stroke-width="0.5" fill="none" />
  </g>
  
  <!-- Particules de pensée en mouvement -->
  <g>
    <circle cx="100" cy="150" r="1" fill="#ffffff" opacity="0.8">
      <animate attributeName="cx" values="100;120;100" dur="10s" repeatCount="indefinite" />
      <animate attributeName="cy" values="150;140;150" dur="10s" repeatCount="indefinite" />
    </circle>
    
    <circle cx="200" cy="140" r="0.8" fill="#ffffff" opacity="0.7">
      <animate attributeName="cx" values="200;220;200" dur="12s" repeatCount="indefinite" />
      <animate attributeName="cy" values="140;130;140" dur="12s" repeatCount="indefinite" />
    </circle>
    
    <circle cx="300" cy="160" r="1.2" fill="#ffffff" opacity="0.8">
      <animate attributeName="cx" values="300;280;300" dur="11s" repeatCount="indefinite" />
      <animate attributeName="cy" values="160;150;160" dur="11s" repeatCount="indefinite" />
    </circle>
  </g>
  
  <!-- Vagues d'énergie mentale -->
  <g opacity="0.4">
    <circle cx="100" cy="180" r="30" fill="none" stroke="#6e00ff" stroke-width="0.5">
      <animate attributeName="r" values="30;40;30" dur="8s" repeatCount="indefinite" />
    </circle>
    
    <circle cx="200" cy="180" r="25" fill="none" stroke="#9d4edd" stroke-width="0.5">
      <animate attributeName="r" values="25;35;25" dur="9s" repeatCount="indefinite" />
    </circle>
    
    <circle cx="300" cy="180" r="35" fill="none" stroke="#00f2ff" stroke-width="0.5">
      <animate attributeName="r" values="35;45;35" dur="10s" repeatCount="indefinite" />
    </circle>
  </g>
  
  <!-- Titre de la dimension -->
  <text x="200" y="50" font-family="'Orbitron', sans-serif" font-size="20" fill="#ffffff" text-anchor="middle">Terra Cognita</text>
</svg>
